<?xml version="1.0" standalone="no"?>
<!DOCTYPE svg PUBLIC "-//W3C//DTD SVG 20010904//EN"
 "http://www.w3.org/TR/2001/REC-SVG-20010904/DTD/svg10.dtd">
<svg version="1.0" xmlns="http://www.w3.org/2000/svg"
 width="500.000000pt" height="999.000000pt" viewBox="0 0 500.000000 999.000000"
 preserveAspectRatio="xMidYMid meet">

<g transform="translate(0.000000,999.000000) scale(0.100000,-0.100000)"
fill="#000000" stroke="none">
<path d="M1825 9980 c-805 -5 -708 -5 670 -6 886 -1 1664 2 1730 6 135 8 -994
8 -2400 0z"/>
<path d="M4403 9983 c15 -2 39 -2 55 0 15 2 2 4 -28 4 -30 0 -43 -2 -27 -4z"/>
<path d="M773 9963 c9 -2 23 -2 30 0 6 3 -1 5 -18 5 -16 0 -22 -2 -12 -5z"/>
<path d="M4213 9963 c9 -2 23 -2 30 0 6 3 -1 5 -18 5 -16 0 -22 -2 -12 -5z"/>
<path d="M748 9930 c-191 -36 -299 -89 -413 -205 -145 -147 -214 -363 -215
-667 0 -68 2 -77 20 -83 13 -4 20 -15 20 -30 0 -14 -9 -29 -20 -35 -20 -11
-20 -21 -20 -3881 0 -3862 0 -3871 20 -3876 28 -7 28 -59 0 -66 -18 -5 -20
-13 -20 -84 0 -112 17 -255 41 -353 48 -193 177 -358 348 -444 122 -60 299
-96 483 -96 58 0 67 3 73 20 9 28 61 28 68 0 l5 -21 1539 4 1538 3 100 22
c240 55 420 202 507 414 47 117 59 181 65 366 5 155 4 172 -11 172 -11 0 -16
9 -16 30 0 20 5 30 15 30 13 0 15 438 15 3880 0 3442 -2 3880 -15 3880 -10 0
-15 11 -15 35 0 23 4 34 13 32 19 -3 14 309 -7 396 -90 376 -374 576 -817 577
-88 0 -97 -2 -102 -20 -3 -14 -14 -20 -32 -20 -18 0 -29 6 -32 20 -5 20 -13
20 -1522 19 -1418 -1 -1522 -2 -1613 -19z m3469 -367 c97 -46 96 -198 -2 -239
-38 -16 -357 -20 -622 -7 l-143 6 0 34 c0 23 -5 33 -15 33 -8 0 -15 4 -15 9 0
5 7 28 15 51 8 23 15 60 15 81 l0 38 103 4 c56 1 221 4 365 5 229 2 269 0 299
-15z m-3037 -48 c0 -22 3 -24 19 -15 25 13 27 13 45 -6 18 -17 23 -114 6 -114
-5 0 -10 22 -10 49 0 36 -4 51 -16 55 -27 10 -44 -13 -44 -61 0 -27 -4 -42
-10 -38 -5 3 -10 40 -10 81 0 43 4 74 10 74 6 0 10 -11 10 -25z m388 -19 l3
-38 30 28 c21 20 29 24 29 12 0 -9 -7 -18 -15 -22 -21 -8 -19 -29 6 -60 31
-40 12 -47 -21 -7 l-28 33 -4 -26 c-2 -15 -7 -28 -13 -29 -6 -1 -11 31 -13 76
-2 61 0 78 10 75 7 -3 14 -22 16 -42z m-447 -6 c18 -14 20 -19 9 -20 -9 0 -21
5 -26 10 -14 14 -41 3 -47 -19 -11 -45 31 -79 61 -49 6 6 14 9 17 6 9 -9 -25
-38 -44 -38 -50 0 -74 61 -41 103 25 32 40 34 71 7z m251 3 c10 -9 18 -24 18
-35 0 -14 -8 -18 -41 -18 -33 0 -40 -3 -37 -17 3 -14 13 -18 41 -17 30 1 35
-1 26 -12 -15 -19 -54 -18 -73 2 -24 24 -20 80 6 98 28 20 37 20 60 -1z m129
-3 c26 -21 19 -26 -12 -9 -27 14 -49 -5 -49 -43 0 -34 24 -47 52 -29 26 16 34
8 13 -13 -19 -19 -38 -20 -66 -6 -28 16 -27 84 3 104 28 20 31 20 59 -4z m275
-108 c-10 -2 -26 3 -35 12 -15 15 -13 16 19 4 26 -9 30 -13 16 -16z m782 -403
c32 -11 62 -47 62 -74 0 -13 81 -15 733 -15 l733 0 13 35 c19 54 83 80 134 54
95 -48 64 -189 -41 -189 -43 0 -87 27 -97 60 -6 20 -18 20 -740 20 -733 0
-734 0 -740 -21 -8 -24 -61 -59 -91 -59 -12 0 -32 8 -43 18 -19 15 -22 25 -19
87 3 63 5 71 28 82 31 16 30 15 68 2z m-1663 -15 c34 -22 49 -78 30 -115 -29
-56 -88 -75 -133 -43 -19 13 -22 24 -22 84 0 55 4 71 18 79 26 16 80 13 107
-5z m-396 -569 c64 -32 61 13 61 -1033 l0 -949 -23 -34 c-31 -46 -61 -59 -139
-59 l-68 0 0 1045 0 1045 70 0 c43 0 82 -6 99 -15z m3619 -1 c54 -38 52 5 52
-1029 0 -1060 4 -1002 -65 -1031 -29 -12 -194 -14 -1043 -14 -1122 0 -1371 5
-1379 28 -3 8 0 18 8 23 8 5 9 9 3 9 -8 0 -12 29 -12 88 0 48 -1 89 -2 92 -7
22 -7 40 0 40 4 0 5 17 3 38 -3 20 -6 96 -7 169 0 72 -4 129 -8 126 -5 -2 -8
3 -8 12 0 9 5 13 10 10 6 -3 10 -1 10 4 0 6 -4 11 -9 11 -5 0 -5 15 -1 34 4
19 5 37 2 40 -3 3 -6 77 -7 165 -1 87 -5 164 -9 170 -4 6 -2 11 3 11 17 0 13
21 -6 36 -17 13 -17 13 0 14 20 0 21 4 7 31 -8 13 -7 25 0 39 8 15 8 20 -1 20
-7 0 -9 3 -6 7 4 3 2 12 -4 20 -9 10 -7 13 7 13 18 1 18 1 0 15 -11 8 -14 15
-7 15 7 0 9 5 6 10 -3 6 0 10 7 10 9 0 9 3 2 8 -6 4 -11 30 -12 57 -1 28 -3
71 -6 98 -3 31 -1 45 6 41 7 -4 7 0 1 12 -5 11 -9 69 -8 131 0 61 -3 109 -6
107 -3 -2 -3 15 1 36 4 23 3 43 -2 46 -5 3 -4 11 2 19 8 10 8 15 0 20 -8 5 -8
10 0 20 7 8 7 16 2 19 -6 3 -7 21 -2 42 7 29 6 34 -6 30 -10 -4 -12 -2 -7 7
10 16 10 38 1 58 -4 9 -2 21 4 27 9 9 325 12 1238 12 1094 0 1228 -2 1248 -16z
m-2981 -251 l18 -56 15 54 c14 46 20 54 42 57 l27 3 -28 -83 c-26 -78 -30 -83
-56 -83 -26 0 -30 5 -56 83 l-28 82 24 0 c20 0 27 -9 42 -57z m153 -29 c0 -83
-1 -85 -22 -82 -21 3 -23 9 -26 72 -4 82 1 96 28 96 19 0 20 -6 20 -86z m134
70 c9 -8 16 -22 16 -30 0 -17 -31 -19 -47 -3 -6 6 -19 9 -29 7 -14 -4 -6 -11
29 -26 40 -18 47 -25 47 -50 0 -15 -5 -33 -12 -40 -18 -18 -88 -15 -110 5 -26
23 -23 43 7 43 14 0 25 -4 25 -10 0 -5 9 -10 20 -10 33 0 23 16 -20 33 -34 13
-40 20 -40 44 0 16 5 34 12 41 17 17 84 15 102 -4z m158 -69 c16 -46 24 -83
19 -88 -13 -13 -51 2 -51 19 0 19 -49 18 -56 -1 -6 -14 -54 -22 -54 -10 0 3
12 42 26 86 26 78 28 80 57 77 29 -3 33 -8 59 -83z m-402 -625 c0 -5 6 -10 13
-10 8 0 14 -11 14 -28 0 -20 -7 -31 -26 -40 -17 -8 -27 -9 -29 -2 -2 5 -9 10
-16 10 -7 0 -13 13 -13 30 0 18 6 30 14 30 7 0 13 5 13 10 0 6 7 10 15 10 8 0
15 -4 15 -10z m110 0 c0 -5 6 -10 13 -10 8 0 14 -12 14 -30 0 -18 -6 -30 -14
-30 -7 0 -13 -4 -13 -10 0 -5 -7 -10 -15 -10 -8 0 -15 5 -15 10 0 6 -6 10 -13
10 -8 0 -14 12 -14 30 0 18 6 30 14 30 7 0 13 5 13 10 0 6 7 10 15 10 8 0 15
-4 15 -10z m110 0 c0 -5 5 -9 12 -7 7 1 13 -12 15 -30 2 -24 -1 -33 -12 -33
-8 0 -15 -4 -15 -10 0 -5 -7 -10 -15 -10 -8 0 -15 5 -15 10 0 6 -6 10 -13 10
-8 0 -14 12 -14 30 0 18 6 30 14 30 7 0 13 5 13 10 0 6 7 10 15 10 8 0 15 -4
15 -10z m110 0 c0 -5 5 -9 12 -7 7 1 13 -12 15 -30 2 -24 -1 -33 -12 -33 -8 0
-15 -4 -15 -10 0 -5 -7 -10 -15 -10 -8 0 -15 5 -15 10 0 6 -7 10 -15 10 -11 0
-14 9 -12 33 2 18 8 31 15 30 7 -2 12 2 12 7 0 6 7 10 15 10 8 0 15 -4 15 -10z
m-368 -407 l33 -48 3 48 c2 33 7 47 18 47 11 0 14 -16 14 -74 0 -102 -11 -107
-65 -27 l-30 45 -5 -47 c-7 -70 -25 -62 -28 12 -5 106 9 117 60 44z m159 7
c15 -9 19 -22 19 -64 l0 -53 -35 -1 c-32 -1 -65 18 -65 38 0 16 31 40 51 40
10 0 19 5 19 11 0 7 -7 8 -17 4 -29 -11 -35 -11 -40 3 -3 6 6 16 19 21 30 13
26 13 49 1z m177 -3 c18 -12 16 -117 -2 -117 -11 0 -16 14 -18 48 -2 26 -7 47
-13 47 -5 0 -11 -21 -13 -47 -2 -33 -8 -48 -17 -48 -9 0 -15 15 -17 48 -4 59
-21 61 -28 3 -8 -70 -30 -65 -30 7 0 32 2 61 4 63 8 7 121 4 134 -4z m115 -5
c23 -25 20 -90 -6 -103 -28 -16 -66 -2 -77 27 -13 34 -13 38 11 68 24 30 49
33 72 8z m-249 -302 c20 -7 26 -17 26 -38 0 -34 -16 -52 -47 -52 -20 0 -23 5
-23 43 0 38 6 57 16 57 1 0 14 -4 28 -10z m-256 -27 l10 -28 7 28 c7 26 25 38
25 17 0 -16 -28 -80 -35 -80 -5 0 -15 23 -29 68 -11 32 10 27 22 -5z m100 -6
c17 -48 16 -63 -4 -46 -12 10 -20 10 -35 1 -23 -15 -25 -2 -8 47 14 40 32 40
47 -2z m42 -2 c0 -24 5 -35 15 -35 8 0 15 -4 15 -10 0 -5 -11 -10 -25 -10 -23
0 -25 4 -25 45 0 25 5 45 10 45 6 0 10 -16 10 -35z m60 -10 c0 -25 -4 -45 -10
-45 -5 0 -10 20 -10 45 0 25 5 45 10 45 6 0 10 -20 10 -45z m3400 25 c0 -11
-2 -20 -4 -20 -2 0 -6 9 -9 20 -3 11 -1 20 4 20 5 0 9 -9 9 -20z m-3550 -153
c0 -5 8 -3 19 7 23 21 47 12 59 -22 l9 -27 7 33 c7 30 26 46 26 21 0 -8 4 -8
14 0 17 14 46 4 46 -16 0 -11 5 -9 18 7 26 33 52 17 52 -31 0 -49 -24 -63 -52
-30 -14 18 -18 20 -18 7 0 -22 -27 -31 -45 -16 -8 7 -15 24 -16 39 -1 23 -2
22 -13 -11 -14 -46 -26 -59 -26 -28 0 23 0 23 -14 4 -13 -16 -18 -17 -35 -6
-17 9 -25 10 -40 0 -40 -25 -71 41 -36 76 16 16 45 12 45 -7z m1174 -458 c67
-53 -1 -168 -76 -128 -53 28 -64 84 -23 124 30 30 64 32 99 4z m490 0 c67 -53
-1 -168 -76 -128 -53 28 -64 84 -23 124 30 30 64 32 99 4z m-651 -726 c4 -3 5
-9 1 -14 -4 -6 -11 -6 -20 2 -15 12 -44 6 -44 -10 0 -5 16 -15 35 -21 36 -12
46 -35 23 -58 -16 -16 -53 -15 -68 3 -10 12 -6 13 24 8 28 -4 36 -2 36 10 0 9
-12 18 -29 22 -31 7 -44 25 -35 49 9 22 44 26 77 9z m265 6 c14 7 25 6 41 -5
18 -13 21 -24 19 -60 -4 -59 -22 -57 -28 3 -4 34 -9 48 -20 48 -11 0 -16 -14
-20 -48 -3 -26 -9 -47 -15 -47 -5 0 -12 21 -15 47 -4 34 -9 48 -20 48 -11 0
-16 -14 -18 -52 -4 -73 -22 -67 -22 6 0 54 2 60 23 63 12 2 30 0 40 -4 9 -5
25 -4 35 1z m193 2 c19 12 25 11 43 -7 18 -17 23 -114 6 -114 -5 0 -10 20 -10
44 0 44 -19 74 -40 61 -5 -3 -10 -28 -10 -56 0 -27 -4 -49 -10 -49 -5 0 -10
22 -10 49 0 48 -10 63 -37 54 -8 -3 -13 -23 -13 -54 0 -27 -4 -49 -10 -49 -6
0 -10 26 -10 59 0 54 2 60 23 63 12 2 31 1 43 -3 11 -4 27 -3 35 2z m177 -63
l3 -55 -40 -1 c-31 -1 -43 3 -51 19 -14 26 0 44 40 53 17 3 30 10 30 16 0 16
-30 24 -43 11 -14 -14 -27 -14 -27 -1 0 16 42 28 65 20 16 -6 21 -18 23 -62z
m86 49 c-28 -15 -34 -28 -34 -70 0 -23 -4 -36 -10 -32 -5 3 -10 30 -10 60 0
51 1 54 28 57 36 5 49 -2 26 -15z m-662 -34 c3 -40 6 -48 23 -48 17 0 20 8 23
48 4 67 22 59 22 -10 0 -58 0 -58 -32 -60 -45 -3 -58 12 -58 68 0 63 18 64 22
2z m726 6 l18 -42 16 42 c9 22 21 41 27 41 10 0 -33 -125 -51 -147 -6 -7 -18
-13 -27 -13 -14 1 -14 2 2 14 22 17 21 29 -3 94 -24 62 -7 72 18 11z m1066
-434 c65 -31 66 -37 66 -400 0 -359 -2 -370 -60 -400 -27 -14 -151 -16 -1139
-13 -610 2 -1112 6 -1115 9 -3 3 -6 23 -6 45 0 21 0 47 0 57 -1 34 -1 63 1
110 0 27 -1 51 -4 53 -3 3 -31 6 -64 6 -62 1 -73 8 -73 50 0 32 15 44 35 28
13 -11 104 -12 106 -1 3 29 5 190 2 206 -4 22 -56 52 -61 35 -5 -14 -55 -13
-71 3 -11 10 -14 10 -18 0 -3 -7 -13 -13 -23 -13 -10 0 -20 -7 -24 -15 -8 -22
-36 -18 -36 4 0 14 -5 18 -20 14 -17 -5 -20 0 -22 28 l-1 34 -4 -33 c-5 -42
-35 -40 -44 3 l-7 30 -1 -32 c-1 -22 -6 -33 -16 -33 -8 0 -15 6 -16 13 0 10
-2 10 -6 0 -6 -16 -65 -17 -81 -1 -9 9 -12 9 -12 0 0 -7 -7 -12 -15 -12 -10 0
-15 10 -15 30 0 17 -4 30 -10 30 -5 0 -10 -13 -10 -30 0 -20 -5 -30 -15 -30
-8 0 -15 7 -15 16 0 14 -1 14 -16 0 -20 -20 -58 -20 -74 -1 -10 12 -10 19 -2
27 8 8 7 16 -1 28 -8 14 -8 22 2 34 22 26 81 18 81 -11 0 -11 -7 -13 -25 -9
-34 9 -32 1 5 -18 l30 -14 0 34 c0 24 5 34 15 34 8 0 15 -6 15 -14 0 -8 10
-16 22 -18 16 -2 25 -12 29 -33 6 -28 9 -24 13 15 1 10 12 15 36 15 28 0 35
-4 41 -25 l7 -25 1 27 c1 24 5 26 53 30 32 2 56 -2 64 -9 9 -10 13 -10 17 1 6
16 69 14 75 -3 3 -9 11 -7 29 5 20 12 31 14 49 5 34 -15 81 6 79 37 -1 12 1
22 5 22 4 0 4 18 0 39 l-7 40 225 1 c124 0 228 3 231 5 2 3 400 5 884 5 765 0
883 -2 911 -15z m-2854 -355 c0 -34 25 -42 33 -11 4 17 16 19 121 20 l116 0 0
-28 c0 -24 -4 -28 -25 -28 -16 0 -25 5 -26 16 -1 13 -2 13 -6 -1 -3 -13 -15
-18 -40 -18 -22 0 -41 7 -49 18 -12 15 -13 15 -14 1 0 -13 -13 -17 -70 -18
l-70 -2 0 41 c0 29 4 40 15 40 10 0 15 -10 15 -30z m322 20 c4 -11 36 -12 168
-8 l95 3 3 -33 3 -33 -117 2 c-79 1 -119 -2 -122 -10 -12 -35 -52 7 -52 53 0
33 14 49 22 26z m-202 -124 c0 -7 29 -11 87 -11 l88 0 3 -27 c2 -18 -2 -28
-10 -29 -60 -5 -145 -3 -155 4 -6 4 -14 4 -17 -2 -4 -6 -15 -7 -30 -1 -14 5
-27 5 -33 -1 -15 -15 -43 1 -44 25 -1 20 -1 20 -7 -2 -10 -34 -27 -32 -30 5
-3 31 -3 32 40 31 24 0 46 -5 50 -12 5 -6 8 -2 8 10 0 16 6 22 25 22 14 0 25
-6 25 -12z m265 4 c3 -5 17 -10 30 -10 27 0 43 -33 26 -54 -13 -16 -90 -18
-108 -4 -20 16 -15 49 7 55 11 3 20 9 20 14 0 12 17 11 25 -1z m-385 -131 c0
-7 9 -9 22 -6 12 4 28 1 35 -5 9 -8 13 -7 13 2 0 6 6 10 13 7 6 -2 23 0 36 5
15 5 28 4 37 -3 7 -6 17 -8 23 -5 14 9 41 -4 41 -19 0 -7 7 -15 15 -19 33 -12
12 -24 -41 -23 -46 0 -58 3 -61 19 -3 10 -9 18 -13 18 -5 0 -6 -8 -3 -18 4
-17 -3 -19 -65 -19 l-70 -1 -5 32 c-2 17 -3 34 0 39 7 11 23 8 23 -4z m2882
-378 l33 -29 3 -344 c3 -342 3 -345 -19 -372 -46 -59 9 -57 -1181 -50 -601 3
-1104 7 -1116 10 -19 4 -22 7 -12 19 8 9 10 36 8 69 -3 34 -1 53 6 49 6 -4 6
1 2 13 -5 10 -8 42 -8 69 l0 50 -61 3 c-74 4 -77 6 -77 40 0 40 15 59 34 43 8
-7 37 -13 63 -14 l49 -2 -1 115 0 115 -28 12 c-21 10 -34 10 -49 2 -15 -8 -27
-8 -45 0 -21 10 -31 8 -60 -9 -43 -25 -53 -25 -53 -1 0 14 -5 18 -20 14 -17
-5 -20 0 -22 28 l-1 34 -4 -32 c-3 -25 -9 -33 -24 -33 -14 0 -19 8 -21 33 l-1
32 -4 -31 c-4 -31 -5 -31 -60 -33 -36 -1 -60 4 -65 12 -6 9 -8 9 -8 0 0 -7 -7
-13 -15 -13 -10 0 -15 10 -15 30 0 17 -4 30 -10 30 -5 0 -10 -13 -10 -30 0
-20 -5 -30 -15 -30 -8 0 -15 5 -15 12 0 9 -3 9 -12 0 -24 -24 -88 -9 -88 21 0
5 15 6 33 2 l32 -6 -32 20 c-38 24 -40 32 -13 56 17 15 24 16 45 7 14 -6 25
-18 25 -27 0 -17 -16 -20 -25 -5 -3 6 -10 10 -16 10 -5 0 -9 -4 -9 -10 0 -5 6
-10 14 -10 8 0 22 -7 30 -16 15 -14 16 -12 16 20 0 39 16 57 28 29 4 -10 16
-18 27 -18 12 0 22 -9 26 -25 7 -24 10 -24 13 1 2 23 34 35 56 22 11 -8 21 -9
25 -3 3 5 30 9 60 9 40 -1 58 -6 65 -18 9 -15 9 -14 10 2 0 13 8 17 33 17 18
0 38 -5 45 -12 9 -9 15 -9 24 0 15 15 50 16 65 1 12 -12 52 6 67 31 12 19 14
58 5 93 l-8 27 1125 0 1124 0 32 -29z m-2882 -337 c0 -30 13 -31 33 -1 13 19
18 20 36 9 12 -7 21 -8 21 -3 0 5 39 8 88 8 l87 -2 3 -32 c2 -19 -1 -33 -7
-33 -6 0 -11 6 -12 13 0 10 -2 10 -6 0 -8 -21 -23 -15 -24 10 -2 20 -2 20 -6
1 -6 -29 -68 -30 -88 -1 l-15 21 0 -22 c0 -12 -4 -22 -10 -22 -5 0 -10 5 -10
11 0 8 -4 8 -12 2 -7 -6 -33 -10 -58 -9 -42 1 -45 3 -48 29 -2 16 -1 35 2 43
8 22 26 7 26 -22z m322 24 c3 -9 41 -12 136 -10 l132 1 0 -35 0 -35 -115 3
c-88 2 -118 0 -124 -11 -7 -11 -12 -11 -30 0 -16 11 -21 24 -21 56 0 40 13 58
22 31z m89 -130 c22 4 42 -23 34 -47 -5 -18 -14 -20 -63 -18 -47 2 -57 5 -61
22 -5 26 49 71 64 52 6 -7 17 -11 26 -9z m-291 -4 c0 -14 3 -14 15 -4 12 10
18 10 29 1 9 -8 16 -8 20 -2 6 9 43 7 54 -4 3 -2 11 0 17 5 21 17 46 0 43 -29
l-3 -26 -139 -1 c-132 -1 -139 0 -144 19 -5 20 -5 20 -13 -1 -13 -34 -31 -27
-27 10 3 29 6 32 38 34 19 0 41 -4 48 -9 8 -7 12 -5 12 7 0 10 9 16 25 16 16
0 25 -6 25 -16z m67 -126 c18 3 26 -2 30 -17 3 -12 12 -21 19 -21 8 0 14 -4
14 -9 0 -5 -27 -9 -60 -9 -52 0 -60 3 -60 19 0 11 -5 19 -11 19 -6 0 -8 -8 -5
-18 6 -17 -1 -19 -63 -19 -67 -1 -69 0 -74 26 -6 30 5 47 24 35 21 -12 123 -8
127 5 3 9 8 9 19 -1 9 -7 27 -11 40 -10z m1965 -335 c-426 -2 -1119 -2 -1540
0 -422 1 -74 2 773 2 847 0 1192 -1 767 -2z m197 -514 c24 -23 21 -40 -4 -19
-13 11 -15 9 -15 -11 0 -13 9 -30 20 -37 27 -17 25 -48 -4 -67 -19 -13 -28
-14 -50 -4 -25 12 -36 39 -16 39 6 0 10 -4 10 -10 0 -5 5 -10 10 -10 18 0 10
45 -10 58 -26 16 -25 46 3 65 29 21 29 21 56 -4z m-2428 1 c28 -16 23 -50 -13
-87 l-32 -33 32 0 c18 0 32 -4 32 -10 0 -5 -20 -10 -45 -10 -25 0 -45 4 -45 8
0 4 16 23 35 42 19 19 35 42 35 52 0 26 -30 35 -45 14 -8 -10 -16 -13 -19 -7
-7 10 20 41 35 41 6 0 19 -5 30 -10z m129 -71 c0 -39 -4 -69 -10 -69 -6 0 -10
32 -10 76 0 47 4 73 10 69 6 -3 10 -37 10 -76z m2430 27 c0 -23 5 -47 12 -54
9 -9 9 -12 0 -12 -7 0 -12 -7 -12 -15 0 -8 -4 -15 -10 -15 -5 0 -10 7 -10 15
0 10 -11 15 -35 15 -19 0 -35 3 -35 8 0 17 72 112 80 107 6 -4 10 -25 10 -49z
m113 41 c26 -18 33 -81 13 -112 -20 -30 -61 -33 -76 -6 -15 30 -12 92 7 113
19 21 33 23 56 5z m171 -3 c21 -20 22 -107 2 -124 -40 -33 -94 21 -81 80 12
55 49 75 79 44z m122 2 c23 -17 27 -94 5 -119 -18 -23 -58 -21 -71 2 -15 30
-12 92 7 113 19 22 33 23 59 4z m-2772 -29 c8 -6 7 -10 -1 -14 -19 -7 -16 -64
5 -80 16 -13 16 -14 -3 -11 -15 2 -21 12 -23 43 -2 22 -8 43 -14 46 -6 4 -5
14 4 28 8 14 14 17 17 9 2 -7 9 -17 15 -21z m110 -13 c29 -28 20 -44 -25 -44
-28 0 -39 -4 -36 -12 2 -7 18 -13 35 -13 18 0 31 -4 29 -10 -2 -5 -17 -10 -32
-10 -21 0 -33 7 -44 26 -13 24 -13 29 2 53 20 29 48 34 71 10z m172 -44 c2
-54 2 -54 -5 -10 -5 36 -10 45 -26 45 -16 0 -21 -8 -23 -43 -4 -53 -22 -45
-22 9 0 33 -3 40 -17 37 -13 -2 -19 -15 -21 -46 -5 -61 -22 -52 -22 12 l0 53
68 -1 67 -1 1 -55z m104 45 c11 -13 8 -14 -19 -9 -41 8 -41 -11 0 -25 24 -8
30 -15 27 -33 -2 -19 -9 -23 -37 -23 -19 0 -36 6 -38 12 -3 9 4 11 26 7 41 -8
42 13 1 27 -32 12 -38 27 -18 47 16 16 43 15 58 -3z m2160 -85 c0 -5 -4 -10
-10 -10 -5 0 -10 5 -10 10 0 6 5 10 10 10 6 0 10 -4 10 -10z m-171 -199 c0
-10 -2 -12 -6 -3 -7 19 -33 14 -33 -7 0 -10 11 -26 25 -35 32 -21 32 -40 -3
-64 -27 -20 -28 -20 -52 -2 -14 10 -21 22 -16 27 5 4 11 2 13 -4 8 -22 23 -14
23 10 0 13 -9 32 -20 42 -25 23 -25 30 1 54 17 16 26 18 45 9 13 -6 24 -18 23
-27z m-2540 3 c41 -52 16 -110 -51 -121 l-38 -6 0 77 0 76 34 0 c25 0 40 -7
55 -26z m61 16 c0 -5 -4 -10 -10 -10 -5 0 -10 5 -10 10 0 6 5 10 10 10 6 0 10
-4 10 -10z m2592 -7 c25 -23 24 -87 -2 -113 -25 -25 -32 -25 -56 1 -12 13 -18
34 -18 60 2 63 37 88 76 52z m166 4 c32 -38 20 -120 -20 -130 -28 -8 -58 26
-58 66 0 59 49 99 78 64z m126 -9 c22 -31 20 -84 -4 -108 -24 -24 -30 -24 -55
-7 -22 17 -27 96 -6 120 19 24 47 21 65 -5z m-2261 -31 c-19 -11 -16 -64 3
-75 12 -7 13 -11 4 -17 -6 -4 -17 -2 -22 3 -15 15 -26 97 -16 116 8 14 11 13
26 -2 14 -13 15 -19 5 -25z m-623 -43 c0 -34 -4 -53 -10 -49 -5 3 -10 28 -10
56 0 27 5 49 10 49 6 0 10 -25 10 -56z m100 46 c0 -5 -10 -9 -21 -7 -34 3 -33
-17 1 -30 50 -19 28 -72 -25 -59 -36 9 -31 27 5 20 37 -8 41 12 6 26 -29 11
-40 26 -32 45 6 17 66 21 66 5z m114 -5 c6 -18 -5 -20 -21 -4 -19 19 -43 2
-43 -31 0 -35 22 -49 45 -30 9 7 19 10 23 6 8 -9 -26 -36 -44 -36 -36 0 -59
71 -32 98 17 17 65 15 72 -3z m116 -11 c6 -14 10 -30 10 -35 0 -14 -38 -49
-54 -49 -23 0 -46 29 -46 59 0 35 17 51 52 51 21 0 31 -6 38 -26z m50 -13 c0
-69 45 -63 53 7 3 28 4 24 5 -18 2 -53 1 -55 -26 -57 -15 -1 -33 3 -39 9 -15
12 -17 98 -3 98 6 0 10 -18 10 -39z m178 -13 c2 -29 -1 -48 -7 -48 -6 0 -11
18 -11 39 0 22 -5 43 -10 46 -20 12 -40 -17 -40 -57 0 -24 -4 -37 -10 -33 -5
3 -10 28 -10 55 l0 48 43 -2 42 -1 3 -47z m2097 -38 c3 -5 1 -10 -4 -10 -6 0
-11 5 -11 10 0 6 2 10 4 10 3 0 8 -4 11 -10z m-170 -180 c7 0 15 -7 19 -15 7
-18 -5 -20 -22 -3 -9 9 -12 6 -12 -15 0 -16 8 -30 20 -37 25 -13 27 -58 3 -67
-10 -4 -20 -10 -23 -14 -3 -5 -19 2 -35 16 -17 13 -26 27 -21 32 5 4 11 2 13
-4 3 -7 11 -13 19 -13 21 0 17 38 -5 49 -32 17 -33 40 -4 67 15 14 29 21 31
15 2 -6 10 -11 17 -11z m-2610 -57 l18 -58 15 35 c8 19 18 46 23 59 5 13 12
21 15 18 10 -9 -37 -137 -49 -137 -7 0 -22 28 -35 63 -24 68 -26 77 -14 77 5
0 17 -26 27 -57z m175 -9 c22 -65 22 -95 0 -55 -14 28 -60 28 -67 1 -5 -19
-23 -29 -23 -12 0 23 47 132 57 132 6 0 21 -30 33 -66z m113 56 c-20 -8 -23
-16 -23 -70 0 -79 -18 -78 -22 2 -3 57 -5 63 -28 69 -17 5 -5 7 35 7 45 1 55
-1 38 -8z m2427 -60 c0 -40 -4 -70 -10 -70 -6 0 -10 27 -10 60 0 52 -2 59 -17
53 -16 -6 -16 -5 -4 10 29 36 41 21 41 -53z m164 48 c33 -46 11 -118 -35 -118
-33 0 -49 23 -49 70 0 17 5 40 10 51 14 26 55 24 74 -3z m126 3 c5 -11 10 -34
10 -51 0 -47 -16 -70 -50 -70 -34 0 -50 23 -50 70 0 47 16 70 50 70 19 0 33
-7 40 -19z m-230 -111 c0 -5 -7 -10 -15 -10 -8 0 -15 5 -15 10 0 6 7 10 15 10
8 0 15 -4 15 -10z m-300 -280 c14 -10 22 -22 18 -26 -4 -4 -14 -1 -23 6 -13
11 -15 9 -15 -11 0 -13 9 -30 20 -37 27 -17 25 -46 -5 -66 -23 -15 -27 -15
-50 0 -24 16 -33 34 -17 34 4 0 13 -5 20 -12 9 -9 12 -6 12 15 0 16 -8 30 -20
37 -26 14 -25 34 2 60 26 24 27 24 58 0z m-2400 1 c0 -5 -10 -11 -22 -13 -21
-3 -23 -9 -26 -66 -4 -79 -22 -72 -22 9 0 52 -2 59 -20 59 -11 0 -20 5 -20 10
0 6 25 10 55 10 30 0 55 -4 55 -9z m317 -103 c-2 -24 -4 -7 -4 37 0 44 2 63 4
43 2 -21 2 -57 0 -80z m2213 63 c0 -30 5 -51 12 -53 9 -3 7 -10 -6 -24 -14
-13 -21 -15 -24 -6 -2 6 -17 12 -32 12 -16 0 -31 4 -34 8 -6 11 61 112 74 112
6 0 10 -22 10 -49z m90 -27 c0 -47 -4 -73 -10 -69 -5 3 -10 31 -10 62 0 45 -3
54 -15 49 -8 -3 -15 -3 -15 1 0 7 32 32 43 33 4 0 7 -34 7 -76z m164 54 c32
-45 9 -128 -34 -128 -25 0 -50 37 -50 75 0 64 53 98 84 53z m118 5 c12 -10 18
-30 18 -56 0 -68 -52 -102 -84 -55 -31 43 -10 128 31 128 9 0 25 -7 35 -17z
m-2752 -8 c0 -8 6 -15 13 -16 10 0 10 -2 0 -6 -7 -2 -13 -22 -13 -43 0 -22 5
-40 13 -43 6 -2 9 -7 6 -11 -3 -3 -14 -4 -23 0 -11 4 -16 19 -16 50 0 28 -5
44 -12 45 -10 0 -10 2 0 6 6 2 12 11 12 19 0 8 5 14 10 14 6 0 10 -7 10 -15z
m-60 -34 c14 -28 12 -52 -7 -73 -20 -22 -41 -23 -65 -1 -36 32 -15 93 32 93
19 0 33 -7 40 -19z m179 5 c7 -8 11 -32 9 -52 -3 -34 -6 -38 -34 -41 -60 -7
-73 52 -14 63 16 4 30 11 30 16 0 15 -30 21 -45 8 -15 -12 -22 0 -8 13 11 12
50 7 62 -7z m2411 -74 c0 -13 -12 -22 -22 -16 -10 6 -1 24 13 24 5 0 9 -4 9
-8z m89 -346 c107 -40 180 -139 189 -256 7 -98 -17 -160 -87 -231 -96 -95 -15
-89 -1111 -89 -526 0 -1005 3 -1063 7 l-107 6 6 76 c6 86 6 86 1 159 -2 29 0
55 5 58 5 3 5 11 0 17 -10 13 -9 100 2 134 4 12 3 24 -2 27 -5 3 -8 27 -7 53
l2 48 914 6 c1152 7 1202 6 1258 -15z"/>
<path d="M1322 9478 c-19 -19 -14 -28 18 -28 32 0 42 23 14 34 -20 8 -18 8
-32 -6z"/>
<path d="M2535 8910 c-13 -14 -25 -18 -42 -13 -23 5 -24 4 -14 -15 23 -43 41
-39 74 17 20 35 10 41 -18 11z"/>
<path d="M844 8905 c-13 -20 -20 -23 -30 -14 -24 20 -37 5 -17 -20 11 -13 25
-21 31 -17 21 13 52 65 43 71 -6 3 -18 -6 -27 -20z"/>
<path d="M1516 8115 c-3 -8 -1 -15 4 -15 6 0 10 7 10 15 0 8 -2 15 -4 15 -2 0
-6 -7 -10 -15z"/>
<path d="M1250 7010 c0 -5 9 -10 20 -10 11 0 20 5 20 10 0 6 -9 10 -20 10 -11
0 -20 -4 -20 -10z"/>
<path d="M1548 7053 c6 -2 18 -2 25 0 6 3 1 5 -13 5 -14 0 -19 -2 -12 -5z"/>
<path d="M1545 7010 c3 -5 13 -10 21 -10 8 0 14 5 14 10 0 6 -9 10 -21 10 -11
0 -17 -4 -14 -10z"/>
<path d="M1320 6734 c0 -31 23 -28 28 4 2 15 -2 22 -12 22 -11 0 -16 -9 -16
-26z"/>
<path d="M1104 6596 c-8 -21 3 -49 16 -41 5 3 10 15 10 25 0 25 -18 36 -26 16z"/>
<path d="M1175 6598 c-10 -26 2 -55 17 -40 8 8 8 18 1 34 -10 21 -12 21 -18 6z"/>
<path d="M1280 6581 c0 -11 5 -23 10 -26 6 -4 10 5 10 19 0 14 -4 26 -10 26
-5 0 -10 -9 -10 -19z"/>
<path d="M1350 6581 c0 -11 5 -23 10 -26 6 -4 10 5 10 19 0 14 -4 26 -10 26
-5 0 -10 -9 -10 -19z"/>
<path d="M2724 5356 c-18 -14 -18 -15 -1 -21 23 -9 47 1 47 20 0 19 -20 19
-46 1z"/>
<path d="M1555 4781 c-3 -5 -1 -12 5 -16 5 -3 10 1 10 9 0 18 -6 21 -15 7z"/>
<path d="M1651 4774 c0 -11 3 -14 6 -6 3 7 2 16 -1 19 -3 4 -6 -2 -5 -13z"/>
<path d="M1741 4774 c0 -11 3 -14 6 -6 3 7 2 16 -1 19 -3 4 -6 -2 -5 -13z"/>
<path d="M1145 4770 c3 -5 11 -10 16 -10 6 0 7 5 4 10 -3 6 -11 10 -16 10 -6
0 -7 -4 -4 -10z"/>
<path d="M1151 4334 c0 -11 3 -14 6 -6 3 7 2 16 -1 19 -3 4 -6 -2 -5 -13z"/>
<path d="M1555 3841 c-3 -5 -1 -12 5 -16 5 -3 10 1 10 9 0 18 -6 21 -15 7z"/>
<path d="M1651 3834 c0 -11 3 -14 6 -6 3 7 2 16 -1 19 -3 4 -6 -2 -5 -13z"/>
<path d="M1741 3834 c0 -11 3 -14 6 -6 3 7 2 16 -1 19 -3 4 -6 -2 -5 -13z"/>
<path d="M3445 2547 c-4 -10 -5 -21 -1 -24 10 -10 18 4 13 24 -4 17 -4 17 -12
0z"/>
<path d="M3480 2471 c0 -12 5 -21 10 -21 6 0 10 6 10 14 0 8 -4 18 -10 21 -5
3 -10 -3 -10 -14z"/>
<path d="M3586 2515 c-21 -31 -20 -35 4 -35 16 0 20 7 20 30 0 36 -3 37 -24 5z"/>
<path d="M3694 2546 c-3 -8 -4 -31 -2 -52 2 -29 8 -40 22 -42 23 -5 36 14 36
54 0 45 -42 76 -56 40z"/>
<path d="M3860 2540 c-18 -33 -4 -90 21 -90 25 0 43 44 31 79 -11 33 -37 38
-52 11z"/>
<path d="M3985 2550 c-9 -14 -9 -75 0 -89 13 -21 44 -12 51 15 13 50 -29 110
-51 74z"/>
<path d="M1315 2510 c-4 -6 7 -10 25 -10 18 0 29 4 25 10 -3 6 -15 10 -25 10
-10 0 -22 -4 -25 -10z"/>
<path d="M3570 2236 c0 -8 5 -18 10 -21 6 -3 10 3 10 14 0 12 -4 21 -10 21 -5
0 -10 -6 -10 -14z"/>
<path d="M3607 2184 c-11 -11 -8 -44 3 -44 15 0 24 30 13 41 -5 5 -12 6 -16 3z"/>
<path d="M1022 2198 c3 -45 6 -53 24 -56 28 -4 54 23 54 57 0 35 -17 51 -53
51 -28 0 -28 -1 -25 -52z"/>
<path d="M3707 2245 c-30 -29 -20 -105 14 -105 38 0 51 63 21 100 -17 21 -19
21 -35 5z"/>
<path d="M3872 2247 c-30 -37 -19 -107 17 -107 22 0 31 19 31 65 0 38 -30 65
-48 42z"/>
<path d="M3997 2249 c-17 -10 -23 -61 -11 -93 10 -25 43 -19 54 10 19 48 -9
102 -43 83z"/>
<path d="M1427 2213 c-4 -3 -7 -19 -7 -35 0 -34 25 -47 48 -25 13 13 13 21 4
42 -11 24 -31 32 -45 18z"/>
<path d="M3597 1934 c-8 -8 1 -24 14 -24 5 0 9 7 9 15 0 15 -12 20 -23 9z"/>
<path d="M3630 1854 c0 -22 2 -25 15 -14 12 10 13 16 4 26 -16 20 -19 18 -19
-12z"/>
<path d="M1166 1915 c-10 -28 -7 -45 9 -45 16 0 20 27 6 48 -7 11 -10 10 -15
-3z"/>
<path d="M3862 1938 c-18 -18 -15 -83 4 -99 32 -26 58 46 34 92 -12 22 -21 24
-38 7z"/>
<path d="M3982 1938 c-17 -17 -15 -83 3 -98 12 -10 18 -10 30 0 27 22 15 110
-15 110 -3 0 -11 -5 -18 -12z"/>
<path d="M3454 1529 c-3 -6 -1 -16 5 -22 8 -8 11 -5 11 11 0 24 -5 28 -16 11z"/>
<path d="M3490 1449 c0 -11 5 -17 10 -14 6 3 10 13 10 21 0 8 -4 14 -10 14 -5
0 -10 -9 -10 -21z"/>
<path d="M3596 1495 c-21 -31 -20 -35 4 -35 16 0 20 7 20 30 0 36 -3 37 -24 5z"/>
<path d="M3836 1524 c-16 -42 -3 -94 24 -94 20 0 30 19 30 55 0 36 -10 55 -30
55 -10 0 -21 -7 -24 -16z"/>
<path d="M3962 1528 c-17 -17 -15 -73 3 -88 29 -24 46 -4 43 47 -3 50 -21 66
-46 41z"/>
<path d="M1140 1496 c-6 -8 -10 -25 -8 -38 2 -17 10 -23 28 -23 18 0 26 6 28
23 3 22 -13 52 -28 52 -4 0 -13 -7 -20 -14z"/>
<path d="M1320 1444 c0 -10 7 -14 22 -12 32 5 35 28 4 28 -17 0 -26 -5 -26
-16z"/>
<path d="M4480 9896 c0 -2 7 -7 16 -10 8 -3 12 -2 9 4 -6 10 -25 14 -25 6z"/>
<path d="M404 9824 c-18 -14 -18 -15 4 -4 12 6 22 13 22 15 0 8 -5 6 -26 -11z"/>
<path d="M314 9748 l-19 -23 23 19 c21 18 27 26 19 26 -2 0 -12 -10 -23 -22z"/>
<path d="M4700 9746 c0 -2 8 -10 18 -17 15 -13 16 -12 3 4 -13 16 -21 21 -21
13z"/>
<path d="M4881 9394 c0 -11 3 -14 6 -6 3 7 2 16 -1 19 -3 4 -6 -2 -5 -13z"/>
<path d="M4892 9340 c0 -14 2 -19 5 -12 2 6 2 18 0 25 -3 6 -5 1 -5 -13z"/>
<path d="M103 9215 c0 -33 2 -45 4 -27 2 18 2 45 0 60 -2 15 -4 0 -4 -33z"/>
<path d="M4903 9235 c0 -22 2 -30 4 -17 2 12 2 30 0 40 -3 9 -5 -1 -4 -23z"/>
<path d="M67 7953 c-4 -3 -7 -75 -7 -160 0 -126 3 -153 14 -153 8 0 17 -8 19
-17 3 -10 5 62 6 160 1 141 -2 177 -12 177 -8 0 -17 -3 -20 -7z"/>
<path d="M70 7262 c0 -5 7 -9 15 -9 8 0 15 4 15 9 0 4 -7 8 -15 8 -8 0 -15 -4
-15 -8z"/>
<path d="M77 7223 c-9 -8 -9 -616 -1 -637 19 -50 24 14 24 314 0 182 -4 330
-8 330 -5 0 -12 -3 -15 -7z"/>
<path d="M4910 7010 c0 -5 7 -10 15 -10 8 0 15 5 15 10 0 6 -7 10 -15 10 -8 0
-15 -4 -15 -10z"/>
<path d="M4910 6430 c0 -437 3 -551 13 -547 9 3 12 121 12 547 0 426 -3 544
-12 548 -10 3 -13 -111 -13 -548z"/>
<path d="M70 6546 c0 -2 7 -6 15 -10 8 -3 15 -1 15 4 0 6 -7 10 -15 10 -8 0
-15 -2 -15 -4z"/>
<path d="M70 6320 c0 -5 7 -10 15 -10 8 0 15 5 15 10 0 6 -7 10 -15 10 -8 0
-15 -4 -15 -10z"/>
<path d="M75 6277 c-3 -7 -4 -154 -3 -326 2 -241 6 -315 16 -319 9 -3 12 67
12 327 0 221 -3 331 -10 331 -6 0 -13 -6 -15 -13z"/>
<path d="M4910 5856 c0 -9 7 -16 16 -16 9 0 14 5 12 12 -6 18 -28 21 -28 4z"/>
<path d="M83 5613 c-18 -7 -16 -23 2 -23 8 0 15 7 15 15 0 8 -1 15 -2 14 -2 0
-9 -3 -15 -6z"/>
<path d="M103 845 c0 -33 2 -45 4 -27 2 18 2 45 0 60 -2 15 -4 0 -4 -33z"/>
<path d="M4903 825 c0 -22 2 -30 4 -17 2 12 2 30 0 40 -3 9 -5 -1 -4 -23z"/>
<path d="M111 734 c0 -11 3 -14 6 -6 3 7 2 16 -1 19 -3 4 -6 -2 -5 -13z"/>
<path d="M4892 725 c0 -16 2 -22 5 -12 2 9 2 23 0 30 -3 6 -5 -1 -5 -18z"/>
<path d="M4881 664 c0 -11 3 -14 6 -6 3 7 2 16 -1 19 -3 4 -6 -2 -5 -13z"/>
<path d="M315 310 c10 -11 20 -20 23 -20 3 0 -3 9 -13 20 -10 11 -20 20 -23
20 -3 0 3 -9 13 -20z"/>
<path d="M390 246 c0 -3 9 -10 20 -16 11 -6 20 -8 20 -6 0 3 -9 10 -20 16 -11
6 -20 8 -20 6z"/>
<path d="M560 150 c8 -5 20 -10 25 -10 6 0 3 5 -5 10 -8 5 -19 10 -25 10 -5 0
-3 -5 5 -10z"/>
<path d="M682 93 c-29 -2 -50 -8 -47 -14 4 -5 684 -9 1806 -9 1665 0 1802 1
1817 17 16 15 12 16 -48 10 -70 -7 -3289 -11 -3405 -4 -38 3 -94 3 -123 0z"/>
</g>
</svg>
