<?xml version="1.0" standalone="no"?>
<!DOCTYPE svg PUBLIC "-//W3C//DTD SVG 20010904//EN"
 "http://www.w3.org/TR/2001/REC-SVG-20010904/DTD/svg10.dtd">
<svg version="1.0" xmlns="http://www.w3.org/2000/svg"
 width="400.000000pt" height="700.000000pt" viewBox="0 0 400.000000 700.000000"
 preserveAspectRatio="xMidYMid meet">

<g transform="translate(0.000000,700.000000) scale(0.100000,-0.100000)"
fill="#000000" stroke="none">
<path d="M1968 6834 c-86 -26 -146 -112 -131 -186 12 -59 90 -108 172 -108 38
0 106 33 115 55 9 26 7 55 -5 55 -5 0 -8 -4 -4 -10 11 -19 -43 -43 -86 -37
-77 10 -90 47 -34 95 35 31 89 52 136 52 40 0 79 -36 79 -72 0 -47 -43 -112
-87 -133 -43 -21 -140 -23 -186 -6 -37 14 -26 -4 15 -25 39 -20 33 -25 -17
-12 -83 22 -165 -18 -165 -81 0 -16 14 -66 30 -111 40 -110 40 -115 -10 -90
-47 24 -119 26 -166 4 -45 -22 -111 -95 -135 -152 -67 -154 -32 -313 78 -358
51 -22 80 -17 197 31 115 47 136 47 136 1 -1 -29 -36 -106 -63 -135 -21 -23
-21 -23 -1 -13 31 16 94 89 110 128 18 43 18 78 -1 113 -24 47 -61 56 -183 44
-70 -7 -111 -7 -119 -1 -37 29 -21 143 24 178 l27 21 61 -65 c58 -63 64 -66
107 -66 84 0 132 62 131 170 0 75 -15 112 -84 221 -27 42 -49 81 -49 86 0 17
57 36 92 31 18 -3 54 -11 81 -19 40 -11 54 -11 95 1 63 19 147 19 166 0 13
-13 9 -25 -39 -100 -64 -100 -85 -155 -85 -224 1 -103 53 -166 139 -166 32 0
45 6 68 32 81 91 91 100 111 89 43 -23 65 -116 42 -176 -9 -24 -14 -26 -43
-21 -17 3 -73 8 -123 12 -91 7 -91 7 -124 -23 -28 -25 -33 -37 -33 -74 0 -24
8 -59 17 -78 19 -36 100 -121 115 -121 6 0 -1 11 -15 25 -45 45 -73 152 -44
170 5 3 53 -13 107 -36 122 -52 166 -58 220 -30 76 38 109 113 100 223 -7 76
-39 157 -87 218 -62 79 -181 105 -254 55 -45 -31 -46 -22 -6 86 55 147 29 204
-91 204 l-59 -1 30 24 c62 49 88 148 55 211 -47 92 -197 135 -327 95z m129
-359 c58 0 60 -1 36 -14 -32 -16 -93 -10 -125 14 l-23 17 25 -9 c14 -4 53 -8
87 -8z"/>
<path d="M1723 5568 c-18 -4 -48 -23 -67 -42 -30 -28 -36 -40 -36 -75 0 -29
-5 -44 -16 -48 -8 -3 -54 0 -102 6 -74 11 -95 10 -135 -3 -112 -34 -171 -106
-170 -209 1 -84 48 -171 183 -341 181 -226 229 -304 286 -461 l32 -90 7 49
c10 67 -1 228 -20 301 -26 96 -116 273 -209 410 -47 70 -86 135 -86 146 0 28
37 46 110 54 174 20 235 78 184 176 -8 16 -12 39 -9 49 6 19 54 64 77 73 26 9
2 14 -29 5z"/>
<path d="M2431 5547 c18 -12 40 -35 49 -50 14 -25 13 -30 -2 -58 -25 -43 -23
-91 5 -117 31 -29 69 -42 170 -57 93 -14 117 -26 117 -55 0 -10 -39 -76 -86
-146 -154 -229 -222 -396 -231 -565 -3 -53 -2 -118 2 -145 l8 -49 22 65 c56
163 112 254 295 485 135 170 183 261 183 343 0 127 -103 217 -243 212 -36 -1
-90 -3 -119 -4 l-55 -1 -2 38 c-4 47 -33 90 -78 111 -52 25 -75 20 -35 -7z"/>
<path d="M1863 5525 c27 -12 328 -12 380 1 26 6 -28 9 -182 9 -152 0 -213 -3
-198 -10z"/>
<path d="M1772 5308 c113 -24 248 -30 412 -18 93 7 179 15 192 19 13 3 -125 6
-307 6 -181 0 -315 -3 -297 -7z"/>
<path d="M1563 4308 c-79 -56 -94 -152 -42 -270 17 -38 29 -71 27 -72 -2 -2
-30 -8 -63 -15 -137 -26 -245 -108 -278 -212 -22 -67 -21 -107 3 -171 28 -76
71 -122 146 -159 61 -30 76 -33 203 -40 75 -4 138 -8 141 -8 2 -1 28 -27 57
-58 l53 -57 0 50 c0 124 -38 173 -194 251 -117 58 -146 78 -146 99 0 16 53 44
129 69 70 23 124 76 140 139 23 91 -9 166 -107 256 -84 77 -93 131 -32 191 22
23 25 29 12 29 -10 0 -32 -10 -49 -22z"/>
<path d="M2548 4314 c34 -24 55 -72 48 -112 -4 -27 -22 -51 -80 -106 -64 -61
-76 -79 -91 -129 -21 -72 -13 -122 27 -177 29 -41 68 -63 181 -105 91 -33 78
-53 -84 -136 -165 -84 -199 -129 -199 -259 l1 -55 21 30 c12 17 37 45 54 63
29 29 37 32 95 32 182 0 307 36 368 106 166 188 58 431 -216 484 -35 7 -63 15
-63 17 0 3 14 37 31 75 26 60 30 81 27 130 -3 38 -11 68 -25 86 -24 32 -80 72
-102 72 -11 0 -9 -4 7 -16z"/>
<path d="M1644 4271 c20 -31 198 -77 351 -91 181 -16 480 21 524 65 11 10 4
10 -30 -3 -64 -25 -556 -24 -709 1 -57 9 -109 22 -114 27 -12 12 -29 13 -22 1z"/>
<path d="M1835 3849 c87 -30 281 -37 398 -15 107 20 157 39 77 29 -61 -7 -432
-7 -495 1 -35 5 -33 3 20 -15z"/>
<path d="M1693 3235 c-6 -38 -28 -175 -47 -303 -20 -127 -48 -276 -61 -330
-32 -124 -112 -287 -208 -422 -41 -58 -82 -127 -91 -153 -22 -66 -21 -165 4
-227 11 -28 20 -52 20 -54 0 -2 -44 -30 -97 -62 -202 -122 -326 -282 -327
-424 -1 -58 4 -74 45 -155 l47 -91 -24 -29 c-14 -17 -39 -59 -57 -95 -28 -58
-31 -74 -31 -151 0 -74 3 -91 26 -130 77 -131 237 -220 537 -299 187 -49 591
-86 841 -77 457 17 906 189 1002 385 18 37 23 63 22 127 0 69 -4 89 -32 145
-17 36 -42 78 -55 95 l-25 29 47 89 c42 80 46 95 45 155 0 55 -7 80 -34 137
-46 96 -163 211 -288 285 -51 30 -95 57 -97 60 -2 4 5 30 15 59 22 56 26 153
10 211 -10 38 -41 90 -132 222 -31 46 -75 120 -97 163 -69 138 -82 198 -167
735 -34 209 -37 202 -53 -130 -24 -465 -7 -589 105 -805 26 -49 58 -111 72
-137 39 -77 40 -125 3 -185 -104 -169 -40 -322 171 -409 116 -49 199 -103 223
-148 l18 -34 -52 -104 c-29 -57 -55 -122 -58 -145 -9 -65 20 -136 74 -181 118
-98 123 -104 123 -135 0 -130 -253 -267 -570 -309 -130 -17 -652 -17 -795 1
-249 30 -393 66 -542 137 -114 55 -163 98 -163 145 0 46 23 77 99 135 74 56
103 104 109 178 3 45 -2 63 -42 144 -81 165 -63 209 121 293 141 64 153 71
199 117 85 87 94 191 27 311 -51 91 -47 106 67 321 87 163 120 302 120 503 0
130 -19 508 -29 567 l-7 45 -11 -70z"/>
<path d="M1770 3222 c52 -34 379 -49 490 -23 40 9 36 10 -40 6 -92 -4 -399 10
-440 20 -18 5 -21 4 -10 -3z"/>
<path d="M1645 1683 c17 -17 136 -60 214 -77 191 -43 387 -38 548 16 52 17 92
33 89 35 -2 2 -44 -3 -92 -13 -161 -30 -552 -8 -744 42 -16 4 -22 3 -15 -3z"/>
<path d="M1270 844 c0 -2 30 -19 68 -38 95 -48 316 -122 430 -146 364 -73 771
-34 1086 105 71 31 73 42 4 15 -100 -39 -234 -70 -368 -86 -168 -20 -529 -15
-690 10 -128 21 -387 87 -470 120 -33 14 -60 23 -60 20z"/>
</g>
</svg>
