<?xml version="1.0" standalone="no"?>
<!DOCTYPE svg PUBLIC "-//W3C//DTD SVG 20010904//EN"
 "http://www.w3.org/TR/2001/REC-SVG-20010904/DTD/svg10.dtd">
<svg version="1.0" xmlns="http://www.w3.org/2000/svg"
 width="1024.000000pt" height="1024.000000pt" viewBox="0 0 1024.000000 1024.000000"
 preserveAspectRatio="xMidYMid meet">

<g transform="translate(0.000000,1024.000000) scale(0.100000,-0.100000)"
fill="#000000" stroke="none">
<path d="M5025 9299 c-33 -5 -91 -13 -130 -19 -38 -5 -101 -19 -140 -30 -38
-12 -100 -30 -137 -41 -108 -32 -388 -176 -388 -200 0 -4 -35 -30 -77 -58 -43
-28 -89 -67 -102 -87 -14 -20 -40 -47 -58 -62 -19 -14 -46 -46 -60 -71 -15
-25 -34 -55 -43 -66 -24 -28 -95 -162 -115 -215 -76 -207 -82 -234 -125 -560
-31 -240 -25 -434 25 -725 13 -77 26 -171 30 -210 4 -38 11 -84 16 -101 5 -17
14 -55 18 -85 14 -85 47 -159 96 -219 25 -30 45 -61 45 -68 0 -19 36 -29 140
-36 52 -4 122 -10 155 -13 101 -11 187 -7 260 12 74 19 154 55 184 83 10 9 41
35 69 57 28 22 51 44 52 49 0 5 13 30 29 55 39 61 87 183 100 255 6 33 16 64
21 71 17 21 75 27 143 15 60 -11 65 -14 86 -52 11 -22 21 -47 21 -57 0 -33 69
-191 114 -260 31 -48 57 -76 83 -89 21 -11 47 -30 58 -42 27 -30 148 -90 215
-106 150 -37 376 -23 485 31 78 38 175 129 213 199 55 100 71 152 82 254 16
140 11 132 84 132 42 0 67 -5 75 -14 7 -9 13 -113 18 -312 l6 -298 24 64 c13
36 44 113 68 172 25 59 45 116 45 127 0 11 4 22 9 25 4 3 11 25 14 48 3 24 16
97 28 163 21 110 23 149 23 465 1 345 -6 443 -44 590 -5 19 -19 80 -31 135
-22 106 -26 115 -94 265 -24 52 -46 105 -50 117 -13 45 -155 238 -237 323 -56
58 -173 150 -223 176 -17 8 -54 29 -83 45 -96 55 -256 108 -472 154 -90 19
-435 29 -525 14z m-378 -864 c598 -22 888 -34 1093 -45 102 -6 223 -12 270
-13 l85 -2 27 -55 c15 -30 50 -113 78 -185 28 -71 55 -139 61 -150 5 -11 23
-60 40 -110 17 -49 41 -110 53 -135 12 -25 33 -83 45 -129 13 -46 31 -100 41
-120 27 -55 113 -291 107 -297 -4 -4 -180 59 -252 91 -16 7 -48 16 -70 20 -22
4 -65 14 -95 23 -45 14 -103 17 -330 16 -274 -1 -275 -1 -385 -31 -60 -16
-148 -44 -195 -61 -147 -52 -319 -54 -465 -3 -140 49 -188 62 -282 76 -57 8
-134 15 -173 15 -181 0 -426 -76 -492 -154 -22 -26 -27 -28 -33 -14 -4 9 -2
25 4 36 6 11 8 21 6 24 -2 2 3 64 11 138 8 74 19 180 25 235 6 55 17 125 25
156 8 31 14 68 14 82 0 14 5 29 10 32 6 3 10 17 10 29 0 51 90 303 151 421 30
59 44 74 85 97 59 33 26 32 531 13z m-174 -1205 c133 -23 198 -52 251 -110 42
-46 42 -50 17 -190 -21 -119 -36 -156 -103 -256 -67 -99 -133 -147 -260 -185
-64 -20 -86 -21 -212 -16 -169 7 -222 23 -281 81 -58 58 -80 132 -105 352 -5
51 -13 105 -16 121 -9 44 51 107 143 150 151 70 357 89 566 53z m1542 -10 c86
-8 122 -16 165 -38 83 -41 95 -64 95 -180 -1 -206 -51 -322 -182 -423 -89 -70
-162 -92 -299 -93 -66 -1 -117 3 -125 10 -8 6 -41 21 -74 34 -33 13 -67 29
-76 37 -8 7 -21 13 -27 13 -19 0 -70 50 -116 115 -25 35 -46 67 -46 71 0 4
-11 30 -25 58 -31 64 -50 179 -40 242 12 81 79 127 219 149 101 16 385 18 531
5z"/>
<path d="M6080 5688 c-51 -72 -219 -268 -230 -268 -4 0 -25 -24 -47 -52 -58
-77 -225 -250 -270 -279 -164 -108 -235 -132 -398 -133 -149 -1 -202 12 -319
78 -73 41 -114 74 -208 169 -65 66 -118 124 -118 129 0 6 -21 36 -47 66 -27
30 -55 67 -63 83 -16 29 -88 138 -102 154 -4 5 -8 -146 -8 -336 l0 -344 399
-403 400 -402 169 0 169 0 52 70 c29 39 56 70 61 70 5 0 28 23 51 52 22 29 53
62 68 73 15 11 71 70 126 130 55 61 127 137 161 170 34 33 65 67 70 75 5 8 25
27 44 41 20 15 48 44 62 65 l27 39 7 408 c4 257 4 407 -2 407 -6 0 -30 -28
-54 -62z"/>
<path d="M6346 4615 c-10 -44 -26 -118 -36 -165 -10 -47 -28 -134 -40 -195
-12 -60 -28 -137 -35 -170 -7 -33 -16 -82 -20 -110 -6 -48 -30 -172 -61 -320
-8 -38 -14 -80 -14 -92 0 -12 -4 -25 -10 -28 -5 -3 -10 -2 -10 3 0 16 -240
246 -310 297 -19 14 -48 40 -65 58 -17 18 -69 65 -117 104 l-86 72 -7 -234 -7
-235 -304 0 c-166 0 -305 3 -307 8 -3 4 -8 84 -11 177 -4 94 -9 194 -12 222
l-5 53 -37 -27 c-20 -15 -60 -50 -88 -78 -29 -27 -83 -78 -120 -112 -80 -73
-168 -155 -273 -253 -40 -38 -77 -68 -81 -65 -3 2 -12 30 -19 62 -7 32 -22 99
-33 148 -11 50 -27 117 -35 150 -9 33 -19 87 -24 120 -5 33 -15 87 -23 120 -8
33 -22 98 -31 145 -9 47 -21 101 -26 120 -19 72 -38 156 -44 195 -11 71 -12
72 -121 20 -113 -54 -130 -62 -199 -100 -116 -64 -158 -85 -174 -85 -9 0 -32
-10 -51 -23 -58 -39 -167 -97 -182 -97 -7 0 -49 -22 -93 -48 -44 -26 -100 -56
-124 -66 -24 -9 -65 -29 -90 -43 -25 -15 -93 -51 -151 -81 -58 -30 -134 -70
-170 -89 -81 -43 -246 -130 -370 -194 -52 -28 -148 -78 -213 -112 l-117 -62
-162 -320 c-88 -176 -181 -363 -207 -415 -25 -52 -71 -145 -103 -207 l-58
-112 44 -26 c24 -14 51 -34 61 -45 10 -11 22 -20 26 -20 4 0 46 -23 94 -50 48
-28 89 -50 91 -50 2 0 23 -14 46 -30 22 -17 47 -30 54 -30 7 0 25 -11 41 -24
15 -13 48 -33 73 -46 25 -12 59 -32 75 -44 17 -13 55 -36 85 -51 30 -16 74
-42 97 -57 23 -15 45 -28 49 -28 4 0 21 -11 38 -23 29 -22 153 -92 221 -125
17 -8 49 -30 72 -48 23 -19 65 -46 95 -61 29 -14 76 -41 103 -58 28 -17 61
-36 75 -43 14 -6 61 -35 105 -63 44 -28 99 -62 122 -74 22 -13 61 -36 85 -51
23 -16 59 -36 78 -45 19 -9 65 -37 102 -62 37 -25 98 -62 135 -83 96 -54 320
-190 350 -214 14 -11 29 -20 33 -20 10 0 303 -177 430 -259 30 -20 76 -45 101
-57 26 -12 49 -26 53 -32 3 -6 38 -27 78 -47 40 -20 83 -47 96 -61 14 -13 28
-24 33 -24 4 0 37 -18 71 -40 35 -22 68 -40 74 -40 7 0 42 -20 78 -45 37 -25
92 -60 124 -77 31 -17 72 -44 90 -59 49 -43 71 -45 128 -10 27 17 71 42 98 57
27 14 74 42 105 62 81 53 90 59 156 93 33 17 80 46 105 64 25 17 81 51 124 74
44 23 91 52 106 65 15 12 43 29 61 36 19 7 50 26 70 42 20 15 41 28 46 28 6 0
30 14 53 31 24 18 70 45 101 60 32 16 61 34 65 40 3 6 30 22 58 35 54 26 199
113 351 211 50 32 111 68 137 80 26 12 73 39 105 61 71 48 290 178 318 188 11
4 29 15 40 24 11 9 54 36 95 60 41 25 108 66 149 92 40 27 77 48 81 48 8 0
152 85 195 116 17 12 48 29 70 38 22 10 51 27 65 40 14 13 45 31 70 40 25 10
64 33 87 52 23 19 48 34 56 34 9 0 29 11 45 25 17 14 45 32 64 39 18 8 64 35
103 60 38 25 73 46 77 46 4 0 29 15 55 34 27 18 77 48 113 66 36 18 78 43 93
56 16 13 33 24 38 24 5 0 43 21 84 47 75 48 89 69 60 93 -8 7 -15 17 -15 23 0
6 -85 182 -190 392 -104 210 -190 384 -190 389 0 4 -15 30 -33 59 -19 29 -37
63 -40 77 -17 63 -42 85 -188 159 -79 40 -156 82 -171 92 -15 11 -44 26 -65
33 -48 17 -131 60 -198 101 -27 18 -64 37 -82 43 -29 9 -116 58 -201 111 -18
12 -37 21 -41 21 -8 0 -76 34 -363 184 -81 42 -153 76 -161 76 -8 0 -25 8 -38
19 -13 10 -62 37 -109 61 -83 41 -329 165 -461 232 l-66 34 -17 -81z m328
-265 c5 0 103 -64 201 -131 51 -35 298 -179 337 -197 21 -9 38 -22 38 -28 0
-6 16 -18 35 -27 42 -20 49 -21 39 -6 -10 16 -4 13 150 -76 155 -91 156 -80
-10 -110 -50 -9 -140 -22 -202 -29 -61 -7 -118 -18 -126 -25 -10 -8 -47 -14
-96 -15 l-80 -1 -11 -53 c-7 -29 -16 -55 -21 -58 -4 -3 -8 -20 -8 -37 0 -18
-9 -75 -21 -127 -29 -137 -42 -221 -35 -228 4 -3 122 0 263 6 153 7 261 8 267
2 5 -5 -20 -23 -60 -44 -92 -47 -215 -169 -276 -273 -12 -21 -37 -57 -55 -81
-18 -24 -33 -49 -33 -56 0 -7 -15 -30 -33 -52 -18 -21 -50 -66 -71 -99 -21
-33 -53 -80 -71 -105 -19 -25 -43 -64 -55 -86 -11 -23 -32 -55 -46 -70 -34
-40 -192 -273 -231 -342 -17 -31 -36 -58 -43 -60 -6 -2 -26 -35 -45 -72 -19
-38 -39 -71 -45 -75 -13 -8 -130 -184 -130 -196 0 -4 -23 -38 -51 -75 -28 -37
-55 -77 -60 -88 -5 -12 -27 -46 -49 -76 -22 -30 -47 -71 -57 -90 -10 -19 -32
-56 -49 -81 -18 -25 -39 -60 -49 -78 -9 -18 -19 -31 -21 -28 -6 6 121 269 188
389 27 48 56 111 64 140 9 29 24 62 34 73 9 11 32 54 50 95 52 120 122 264
136 280 7 8 13 18 13 23 0 12 31 97 51 142 10 22 37 79 59 127 23 48 41 89 41
91 0 3 18 44 40 91 22 47 40 90 40 96 0 12 40 99 111 243 27 54 49 103 49 109
0 6 13 38 29 72 45 97 46 104 17 112 -31 7 -31 14 -15 159 19 175 64 379 81
369 5 -3 6 -14 3 -24 -11 -34 -75 -425 -75 -457 0 -13 4 -23 9 -23 10 0 31
100 31 150 0 20 5 41 12 48 7 7 9 12 6 12 -4 0 -2 15 4 33 13 43 17 66 28 167
6 47 12 90 14 96 2 6 37 19 78 28 40 10 81 20 91 22 15 5 9 15 -33 61 -27 30
-50 60 -50 66 0 7 -23 39 -50 72 -28 33 -59 78 -69 100 -11 22 -38 62 -61 90
-23 27 -51 68 -62 90 -11 22 -39 63 -62 90 -71 86 -75 93 -34 62 20 -15 39
-27 42 -27z m-1157 -1058 c7 -68 17 -200 22 -295 6 -95 15 -224 20 -287 6 -63
15 -182 21 -265 5 -82 14 -195 20 -250 6 -55 15 -165 20 -245 5 -80 12 -161
15 -181 6 -30 -1 -50 -50 -140 -32 -57 -65 -115 -74 -129 -10 -14 -34 -63 -55
-110 -21 -47 -49 -101 -62 -120 -13 -19 -24 -40 -24 -46 0 -6 -22 -51 -48
-100 -27 -49 -57 -110 -68 -136 -10 -27 -21 -48 -24 -48 -3 1 -20 35 -39 78
-64 142 -121 267 -131 282 -13 20 -76 140 -113 215 -16 33 -47 90 -68 126
l-38 66 19 402 c11 221 22 406 24 410 3 4 10 100 16 212 17 331 19 368 30 504
5 72 10 140 10 152 0 22 2 23 158 26 86 1 213 3 282 2 l125 0 12 -123z"/>
<path d="M7350 3930 c0 -5 5 -10 11 -10 5 0 7 5 4 10 -3 6 -8 10 -11 10 -2 0
-4 -4 -4 -10z"/>
<path d="M7410 3891 c24 -20 40 -26 40 -16 0 2 -15 12 -32 20 l-33 16 25 -20z"/>
<path d="M7000 3720 c0 -5 7 -7 15 -4 8 4 15 8 15 10 0 2 -7 4 -15 4 -8 0 -15
-4 -15 -10z"/>
</g>
</svg>
